<?xml version="1.0" encoding="UTF-8"?>
<svg xmlns:xhtml="http://www.w3.org/1999/xhtml" xmlns:xlink="http://www.w3.org/1999/xlink" id="mermaid-svg-99" width="100%" xmlns="http://www.w3.org/2000/svg" style="max-width: 100%;" viewBox="-335.9 -107.4 2142.8 2809.8" height="100%"><g><rect x="950.5" y="0" fill="transparent" stroke="rgb(0,0,0, 0.5)" width="618.5" height="2594" class="rect"/><text x="1259.75" y="14.5" style="text-anchor: middle; font-size: 16px; font-weight: 400;" dominant-baseline="central" alignment-baseline="central" class="text"><tspan x="1259.75" dy="0">rgba(0, 200, 100, 0.1) Application B (Bob - Receveur)</tspan></text></g><g><rect x="0" y="0" fill="transparent" stroke="rgb(0,0,0, 0.5)" width="685.5" height="2594" class="rect"/><text x="342.75" y="14.5" style="text-anchor: middle; font-size: 16px; font-weight: 400;" dominant-baseline="central" alignment-baseline="central" class="text"><tspan x="342.75" dy="0">rgba(0, 150, 255, 0.1) Application A (Alice - Émetteur)</tspan></text></g><g/><g><rect x="955.5" y="2519" fill="#eaeaea" stroke="#666" width="199" height="65" name="CacheB" rx="3" ry="3" class="actor actor-bottom"/><text x="1055" y="2551.5" style="text-anchor: middle; font-size: 16px; font-weight: 400;" dominant-baseline="central" alignment-baseline="central" class="actor actor-box"><tspan x="1055" dy="-8">Cache Local B</tspan></text><text x="1055" y="2551.5" style="text-anchor: middle; font-size: 16px; font-weight: 400;" dominant-baseline="central" alignment-baseline="central" class="actor actor-box"><tspan x="1055" dy="8">(SecureStorage/SQLite)</tspan></text></g><g><rect x="750.5" y="2519" fill="#eaeaea" stroke="#666" width="150" height="65" name="Nostr" rx="3" ry="3" class="actor actor-bottom"/><text x="825.5" y="2551.5" style="text-anchor: middle; font-size: 16px; font-weight: 400;" dominant-baseline="central" alignment-baseline="central" class="actor actor-box"><tspan x="825.5" dy="-8">Relais Nostr</tspan></text><text x="825.5" y="2551.5" style="text-anchor: middle; font-size: 16px; font-weight: 400;" dominant-baseline="central" alignment-baseline="central" class="actor actor-box"><tspan x="825.5" dy="8">(Réseau)</tspan></text></g><g><rect x="481.5" y="2519" fill="#eaeaea" stroke="#666" width="199" height="65" name="CacheA" rx="3" ry="3" class="actor actor-bottom"/><text x="581" y="2551.5" style="text-anchor: middle; font-size: 16px; font-weight: 400;" dominant-baseline="central" alignment-baseline="central" class="actor actor-box"><tspan x="581" dy="-8">Cache Local A</tspan></text><text x="581" y="2551.5" style="text-anchor: middle; font-size: 16px; font-weight: 400;" dominant-baseline="central" alignment-baseline="central" class="actor actor-box"><tspan x="581" dy="8">(SecureStorage/SQLite)</tspan></text></g><g/><g><line id="actor494" x1="1489" y1="109" x2="1489" y2="2519" class="actor-line 200" stroke-width="0.5px" stroke="#999" name="Bob"/></g><g><line id="actor493" x1="1055" y1="94" x2="1055" y2="2519" class="actor-line 200" stroke-width="0.5px" stroke="#999" name="CacheB"/><g id="root-493"><rect x="955.5" y="29" fill="#eaeaea" stroke="#666" width="199" height="65" name="CacheB" rx="3" ry="3" class="actor actor-top"/><text x="1055" y="61.5" style="text-anchor: middle; font-size: 16px; font-weight: 400;" dominant-baseline="central" alignment-baseline="central" class="actor actor-box"><tspan x="1055" dy="-8">Cache Local B</tspan></text><text x="1055" y="61.5" style="text-anchor: middle; font-size: 16px; font-weight: 400;" dominant-baseline="central" alignment-baseline="central" class="actor actor-box"><tspan x="1055" dy="8">(SecureStorage/SQLite)</tspan></text></g></g><g><line id="actor492" x1="825.5" y1="94" x2="825.5" y2="2519" class="actor-line 200" stroke-width="0.5px" stroke="#999" name="Nostr"/><g id="root-492"><rect x="750.5" y="29" fill="#eaeaea" stroke="#666" width="150" height="65" name="Nostr" rx="3" ry="3" class="actor actor-top"/><text x="825.5" y="61.5" style="text-anchor: middle; font-size: 16px; font-weight: 400;" dominant-baseline="central" alignment-baseline="central" class="actor actor-box"><tspan x="825.5" dy="-8">Relais Nostr</tspan></text><text x="825.5" y="61.5" style="text-anchor: middle; font-size: 16px; font-weight: 400;" dominant-baseline="central" alignment-baseline="central" class="actor actor-box"><tspan x="825.5" dy="8">(Réseau)</tspan></text></g></g><g><line id="actor491" x1="581" y1="94" x2="581" y2="2519" class="actor-line 200" stroke-width="0.5px" stroke="#999" name="CacheA"/><g id="root-491"><rect x="481.5" y="29" fill="#eaeaea" stroke="#666" width="199" height="65" name="CacheA" rx="3" ry="3" class="actor actor-top"/><text x="581" y="61.5" style="text-anchor: middle; font-size: 16px; font-weight: 400;" dominant-baseline="central" alignment-baseline="central" class="actor actor-box"><tspan x="581" dy="-8">Cache Local A</tspan></text><text x="581" y="61.5" style="text-anchor: middle; font-size: 16px; font-weight: 400;" dominant-baseline="central" alignment-baseline="central" class="actor actor-box"><tspan x="581" dy="8">(SecureStorage/SQLite)</tspan></text></g></g><g><line id="actor490" x1="80" y1="109" x2="80" y2="2519" class="actor-line 200" stroke-width="0.5px" stroke="#999" name="Alice"/></g><style>#mermaid-svg-99{font-family:"trebuchet ms",verdana,arial,sans-serif;font-size:16px;fill:#ccc;}@keyframes edge-animation-frame{from{stroke-dashoffset:0;}}@keyframes dash{to{stroke-dashoffset:0;}}#mermaid-svg-99 .edge-animation-slow{stroke-dasharray:9,5!important;stroke-dashoffset:900;animation:dash 50s linear infinite;stroke-linecap:round;}#mermaid-svg-99 .edge-animation-fast{stroke-dasharray:9,5!important;stroke-dashoffset:900;animation:dash 20s linear infinite;stroke-linecap:round;}#mermaid-svg-99 .error-icon{fill:#a44141;}#mermaid-svg-99 .error-text{fill:#ddd;stroke:#ddd;}#mermaid-svg-99 .edge-thickness-normal{stroke-width:1px;}#mermaid-svg-99 .edge-thickness-thick{stroke-width:3.5px;}#mermaid-svg-99 .edge-pattern-solid{stroke-dasharray:0;}#mermaid-svg-99 .edge-thickness-invisible{stroke-width:0;fill:none;}#mermaid-svg-99 .edge-pattern-dashed{stroke-dasharray:3;}#mermaid-svg-99 .edge-pattern-dotted{stroke-dasharray:2;}#mermaid-svg-99 .marker{fill:lightgrey;stroke:lightgrey;}#mermaid-svg-99 .marker.cross{stroke:lightgrey;}#mermaid-svg-99 svg{font-family:"trebuchet ms",verdana,arial,sans-serif;font-size:16px;}#mermaid-svg-99 p{margin:0;}#mermaid-svg-99 .actor{stroke:#ccc;fill:#1f2020;}#mermaid-svg-99 text.actor&gt;tspan{fill:lightgrey;stroke:none;}#mermaid-svg-99 .actor-line{stroke:#ccc;}#mermaid-svg-99 .messageLine0{stroke-width:1.5;stroke-dasharray:none;stroke:lightgrey;}#mermaid-svg-99 .messageLine1{stroke-width:1.5;stroke-dasharray:2,2;stroke:lightgrey;}#mermaid-svg-99 #arrowhead path{fill:lightgrey;stroke:lightgrey;}#mermaid-svg-99 .sequenceNumber{fill:black;}#mermaid-svg-99 #sequencenumber{fill:lightgrey;}#mermaid-svg-99 #crosshead path{fill:lightgrey;stroke:lightgrey;}#mermaid-svg-99 .messageText{fill:lightgrey;stroke:none;}#mermaid-svg-99 .labelBox{stroke:#ccc;fill:#1f2020;}#mermaid-svg-99 .labelText,#mermaid-svg-99 .labelText&gt;tspan{fill:lightgrey;stroke:none;}#mermaid-svg-99 .loopText,#mermaid-svg-99 .loopText&gt;tspan{fill:lightgrey;stroke:none;}#mermaid-svg-99 .loopLine{stroke-width:2px;stroke-dasharray:2,2;stroke:#ccc;fill:#ccc;}#mermaid-svg-99 .note{stroke:hsl(180, 0%, 18.3529411765%);fill:hsl(180, 1.5873015873%, 28.3529411765%);}#mermaid-svg-99 .noteText,#mermaid-svg-99 .noteText&gt;tspan{fill:rgb(183.8476190475, 181.5523809523, 181.5523809523);stroke:none;}#mermaid-svg-99 .activation0{fill:hsl(180, 1.5873015873%, 28.3529411765%);stroke:#ccc;}#mermaid-svg-99 .activation1{fill:hsl(180, 1.5873015873%, 28.3529411765%);stroke:#ccc;}#mermaid-svg-99 .activation2{fill:hsl(180, 1.5873015873%, 28.3529411765%);stroke:#ccc;}#mermaid-svg-99 .actorPopupMenu{position:absolute;}#mermaid-svg-99 .actorPopupMenuPanel{position:absolute;fill:#1f2020;box-shadow:0px 8px 16px 0px rgba(0,0,0,0.2);filter:drop-shadow(3px 5px 2px rgb(0 0 0 / 0.4));}#mermaid-svg-99 .actor-man line{stroke:#ccc;fill:#1f2020;}#mermaid-svg-99 .actor-man circle,#mermaid-svg-99 line{stroke:#ccc;fill:#1f2020;stroke-width:2px;}#mermaid-svg-99 :root{--mermaid-font-family:"trebuchet ms",verdana,arial,sans-serif;}</style><g/><defs><symbol id="computer" width="24" height="24"><path transform="scale(.5)" d="M2 2v13h20v-13h-20zm18 11h-16v-9h16v9zm-10.228 6l.466-1h3.524l.467 1h-4.457zm14.228 3h-24l2-6h2.104l-1.33 4h18.45l-1.297-4h2.073l2 6zm-5-10h-14v-7h14v7z"/></symbol></defs><defs><symbol id="database" fill-rule="evenodd" clip-rule="evenodd"><path transform="scale(.5)" d="M12.258.001l.256.004.255.005.253.008.251.01.249.012.247.015.246.016.242.019.241.02.239.023.236.024.233.027.231.028.229.031.225.032.223.034.22.036.217.038.214.04.211.041.208.043.205.045.201.046.198.048.194.05.191.051.187.053.183.054.18.056.175.057.172.059.168.06.163.061.16.063.155.064.15.066.074.033.073.033.071.034.07.034.069.035.068.035.067.035.066.035.064.036.064.036.062.036.06.036.06.037.058.037.058.037.055.038.055.038.053.038.052.038.051.039.05.039.048.039.047.039.045.04.044.04.043.04.041.04.04.041.039.041.037.041.036.041.034.041.033.042.032.042.03.042.029.042.027.042.026.043.024.043.023.043.021.043.02.043.018.044.017.043.015.044.013.044.012.044.011.045.009.044.007.045.006.045.004.045.002.045.001.045v17l-.001.045-.002.045-.004.045-.006.045-.007.045-.009.044-.011.045-.012.044-.013.044-.015.044-.017.043-.018.044-.02.043-.021.043-.023.043-.024.043-.026.043-.027.042-.029.042-.03.042-.032.042-.033.042-.034.041-.036.041-.037.041-.039.041-.04.041-.041.04-.043.04-.044.04-.045.04-.047.039-.048.039-.05.039-.051.039-.052.038-.053.038-.055.038-.055.038-.058.037-.058.037-.06.037-.06.036-.062.036-.064.036-.064.036-.066.035-.067.035-.068.035-.069.035-.07.034-.071.034-.073.033-.074.033-.15.066-.155.064-.16.063-.163.061-.168.06-.172.059-.175.057-.18.056-.183.054-.187.053-.191.051-.194.05-.198.048-.201.046-.205.045-.208.043-.211.041-.214.04-.217.038-.22.036-.223.034-.225.032-.229.031-.231.028-.233.027-.236.024-.239.023-.241.02-.242.019-.246.016-.247.015-.249.012-.251.01-.253.008-.255.005-.256.004-.258.001-.258-.001-.256-.004-.255-.005-.253-.008-.251-.01-.249-.012-.247-.015-.245-.016-.243-.019-.241-.02-.238-.023-.236-.024-.234-.027-.231-.028-.228-.031-.226-.032-.223-.034-.22-.036-.217-.038-.214-.04-.211-.041-.208-.043-.204-.045-.201-.046-.198-.048-.195-.05-.19-.051-.187-.053-.184-.054-.179-.056-.176-.057-.172-.059-.167-.06-.164-.061-.159-.063-.155-.064-.151-.066-.074-.033-.072-.033-.072-.034-.07-.034-.069-.035-.068-.035-.067-.035-.066-.035-.064-.036-.063-.036-.062-.036-.061-.036-.06-.037-.058-.037-.057-.037-.056-.038-.055-.038-.053-.038-.052-.038-.051-.039-.049-.039-.049-.039-.046-.039-.046-.04-.044-.04-.043-.04-.041-.04-.04-.041-.039-.041-.037-.041-.036-.041-.034-.041-.033-.042-.032-.042-.03-.042-.029-.042-.027-.042-.026-.043-.024-.043-.023-.043-.021-.043-.02-.043-.018-.044-.017-.043-.015-.044-.013-.044-.012-.044-.011-.045-.009-.044-.007-.045-.006-.045-.004-.045-.002-.045-.001-.045v-17l.001-.045.002-.045.004-.045.006-.045.007-.045.009-.044.011-.045.012-.044.013-.044.015-.044.017-.043.018-.044.02-.043.021-.043.023-.043.024-.043.026-.043.027-.042.029-.042.03-.042.032-.042.033-.042.034-.041.036-.041.037-.041.039-.041.04-.041.041-.04.043-.04.044-.04.046-.04.046-.039.049-.039.049-.039.051-.039.052-.038.053-.038.055-.038.056-.038.057-.037.058-.037.06-.037.061-.036.062-.036.063-.036.064-.036.066-.035.067-.035.068-.035.069-.035.07-.034.072-.034.072-.033.074-.033.151-.066.155-.064.159-.063.164-.061.167-.06.172-.059.176-.057.179-.056.184-.054.187-.053.19-.051.195-.05.198-.048.201-.046.204-.045.208-.043.211-.041.214-.04.217-.038.22-.036.223-.034.226-.032.228-.031.231-.028.234-.027.236-.024.238-.023.241-.02.243-.019.245-.016.247-.015.249-.012.251-.01.253-.008.255-.005.256-.004.258-.001.258.001zm-9.258 20.499v.01l.001.021.003.021.004.022.005.021.006.022.007.022.009.023.01.022.011.023.012.023.013.023.015.023.016.024.017.023.018.024.019.024.021.024.022.025.023.024.024.025.052.049.056.05.061.051.066.051.07.051.075.051.079.052.084.052.088.052.092.052.097.052.102.051.105.052.11.052.114.051.119.051.123.051.127.05.131.05.135.05.139.048.144.049.147.047.152.047.155.047.16.045.163.045.167.043.171.043.176.041.178.041.183.039.187.039.19.037.194.035.197.035.202.033.204.031.209.03.212.029.216.027.219.025.222.024.226.021.23.02.233.018.236.016.24.015.243.012.246.01.249.008.253.005.256.004.259.001.26-.001.257-.004.254-.005.25-.008.247-.011.244-.012.241-.014.237-.016.233-.018.231-.021.226-.021.224-.024.22-.026.216-.027.212-.028.21-.031.205-.031.202-.034.198-.034.194-.036.191-.037.187-.039.183-.04.179-.04.175-.042.172-.043.168-.044.163-.045.16-.046.155-.046.152-.047.148-.048.143-.049.139-.049.136-.05.131-.05.126-.05.123-.051.118-.052.114-.051.11-.052.106-.052.101-.052.096-.052.092-.052.088-.053.083-.051.079-.052.074-.052.07-.051.065-.051.06-.051.056-.05.051-.05.023-.024.023-.025.021-.024.02-.024.019-.024.018-.024.017-.024.015-.023.014-.024.013-.023.012-.023.01-.023.01-.022.008-.022.006-.022.006-.022.004-.022.004-.021.001-.021.001-.021v-4.127l-.077.055-.08.053-.083.054-.085.053-.087.052-.09.052-.093.051-.095.05-.097.05-.1.049-.102.049-.105.048-.106.047-.109.047-.111.046-.114.045-.115.045-.118.044-.12.043-.122.042-.124.042-.126.041-.128.04-.13.04-.132.038-.134.038-.135.037-.138.037-.139.035-.142.035-.143.034-.144.033-.147.032-.148.031-.15.03-.151.03-.153.029-.154.027-.156.027-.158.026-.159.025-.161.024-.162.023-.163.022-.165.021-.166.02-.167.019-.169.018-.169.017-.171.016-.173.015-.173.014-.175.013-.175.012-.177.011-.178.01-.179.008-.179.008-.181.006-.182.005-.182.004-.184.003-.184.002h-.37l-.184-.002-.184-.003-.182-.004-.182-.005-.181-.006-.179-.008-.179-.008-.178-.01-.176-.011-.176-.012-.175-.013-.173-.014-.172-.015-.171-.016-.17-.017-.169-.018-.167-.019-.166-.02-.165-.021-.163-.022-.162-.023-.161-.024-.159-.025-.157-.026-.156-.027-.155-.027-.153-.029-.151-.03-.15-.03-.148-.031-.146-.032-.145-.033-.143-.034-.141-.035-.14-.035-.137-.037-.136-.037-.134-.038-.132-.038-.13-.04-.128-.04-.126-.041-.124-.042-.122-.042-.12-.044-.117-.043-.116-.045-.113-.045-.112-.046-.109-.047-.106-.047-.105-.048-.102-.049-.1-.049-.097-.05-.095-.05-.093-.052-.09-.051-.087-.052-.085-.053-.083-.054-.08-.054-.077-.054v4.127zm0-5.654v.011l.001.021.003.021.004.021.005.022.006.022.007.022.009.022.01.022.011.023.012.023.013.023.015.024.016.023.017.024.018.024.019.024.021.024.022.024.023.025.024.024.052.05.056.05.061.05.066.051.07.051.075.052.079.051.084.052.088.052.092.052.097.052.102.052.105.052.11.051.114.051.119.052.123.05.127.051.131.05.135.049.139.049.144.048.147.048.152.047.155.046.16.045.163.045.167.044.171.042.176.042.178.04.183.04.187.038.19.037.194.036.197.034.202.033.204.032.209.03.212.028.216.027.219.025.222.024.226.022.23.02.233.018.236.016.24.014.243.012.246.01.249.008.253.006.256.003.259.001.26-.001.257-.003.254-.006.25-.008.247-.01.244-.012.241-.015.237-.016.233-.018.231-.02.226-.022.224-.024.22-.025.216-.027.212-.029.21-.03.205-.032.202-.033.198-.035.194-.036.191-.037.187-.039.183-.039.179-.041.175-.042.172-.043.168-.044.163-.045.16-.045.155-.047.152-.047.148-.048.143-.048.139-.05.136-.049.131-.05.126-.051.123-.051.118-.051.114-.052.11-.052.106-.052.101-.052.096-.052.092-.052.088-.052.083-.052.079-.052.074-.051.07-.052.065-.051.06-.05.056-.051.051-.049.023-.025.023-.024.021-.025.02-.024.019-.024.018-.024.017-.024.015-.023.014-.023.013-.024.012-.022.01-.023.01-.023.008-.022.006-.022.006-.022.004-.021.004-.022.001-.021.001-.021v-4.139l-.077.054-.08.054-.083.054-.085.052-.087.053-.09.051-.093.051-.095.051-.097.05-.1.049-.102.049-.105.048-.106.047-.109.047-.111.046-.114.045-.115.044-.118.044-.12.044-.122.042-.124.042-.126.041-.128.04-.13.039-.132.039-.134.038-.135.037-.138.036-.139.036-.142.035-.143.033-.144.033-.147.033-.148.031-.15.03-.151.03-.153.028-.154.028-.156.027-.158.026-.159.025-.161.024-.162.023-.163.022-.165.021-.166.02-.167.019-.169.018-.169.017-.171.016-.173.015-.173.014-.175.013-.175.012-.177.011-.178.009-.179.009-.179.007-.181.007-.182.005-.182.004-.184.003-.184.002h-.37l-.184-.002-.184-.003-.182-.004-.182-.005-.181-.007-.179-.007-.179-.009-.178-.009-.176-.011-.176-.012-.175-.013-.173-.014-.172-.015-.171-.016-.17-.017-.169-.018-.167-.019-.166-.02-.165-.021-.163-.022-.162-.023-.161-.024-.159-.025-.157-.026-.156-.027-.155-.028-.153-.028-.151-.03-.15-.03-.148-.031-.146-.033-.145-.033-.143-.033-.141-.035-.14-.036-.137-.036-.136-.037-.134-.038-.132-.039-.13-.039-.128-.04-.126-.041-.124-.042-.122-.043-.12-.043-.117-.044-.116-.044-.113-.046-.112-.046-.109-.046-.106-.047-.105-.048-.102-.049-.1-.049-.097-.05-.095-.051-.093-.051-.09-.051-.087-.053-.085-.052-.083-.054-.08-.054-.077-.054v4.139zm0-5.666v.011l.001.02.003.022.004.021.005.022.006.021.007.022.009.023.01.022.011.023.012.023.013.023.015.023.016.024.017.024.018.023.019.024.021.025.022.024.023.024.024.025.052.05.056.05.061.05.066.051.07.051.075.052.079.051.084.052.088.052.092.052.097.052.102.052.105.051.11.052.114.051.119.051.123.051.127.05.131.05.135.05.139.049.144.048.147.048.152.047.155.046.16.045.163.045.167.043.171.043.176.042.178.04.183.04.187.038.19.037.194.036.197.034.202.033.204.032.209.03.212.028.216.027.219.025.222.024.226.021.23.02.233.018.236.017.24.014.243.012.246.01.249.008.253.006.256.003.259.001.26-.001.257-.003.254-.006.25-.008.247-.01.244-.013.241-.014.237-.016.233-.018.231-.02.226-.022.224-.024.22-.025.216-.027.212-.029.21-.03.205-.032.202-.033.198-.035.194-.036.191-.037.187-.039.183-.039.179-.041.175-.042.172-.043.168-.044.163-.045.16-.045.155-.047.152-.047.148-.048.143-.049.139-.049.136-.049.131-.051.126-.05.123-.051.118-.052.114-.051.11-.052.106-.052.101-.052.096-.052.092-.052.088-.052.083-.052.079-.052.074-.052.07-.051.065-.051.06-.051.056-.05.051-.049.023-.025.023-.025.021-.024.02-.024.019-.024.018-.024.017-.024.015-.023.014-.024.013-.023.012-.023.01-.022.01-.023.008-.022.006-.022.006-.022.004-.022.004-.021.001-.021.001-.021v-4.153l-.077.054-.08.054-.083.053-.085.053-.087.053-.09.051-.093.051-.095.051-.097.05-.1.049-.102.048-.105.048-.106.048-.109.046-.111.046-.114.046-.115.044-.118.044-.12.043-.122.043-.124.042-.126.041-.128.04-.13.039-.132.039-.134.038-.135.037-.138.036-.139.036-.142.034-.143.034-.144.033-.147.032-.148.032-.15.03-.151.03-.153.028-.154.028-.156.027-.158.026-.159.024-.161.024-.162.023-.163.023-.165.021-.166.02-.167.019-.169.018-.169.017-.171.016-.173.015-.173.014-.175.013-.175.012-.177.01-.178.01-.179.009-.179.007-.181.006-.182.006-.182.004-.184.003-.184.001-.185.001-.185-.001-.184-.001-.184-.003-.182-.004-.182-.006-.181-.006-.179-.007-.179-.009-.178-.01-.176-.01-.176-.012-.175-.013-.173-.014-.172-.015-.171-.016-.17-.017-.169-.018-.167-.019-.166-.02-.165-.021-.163-.023-.162-.023-.161-.024-.159-.024-.157-.026-.156-.027-.155-.028-.153-.028-.151-.03-.15-.03-.148-.032-.146-.032-.145-.033-.143-.034-.141-.034-.14-.036-.137-.036-.136-.037-.134-.038-.132-.039-.13-.039-.128-.041-.126-.041-.124-.041-.122-.043-.12-.043-.117-.044-.116-.044-.113-.046-.112-.046-.109-.046-.106-.048-.105-.048-.102-.048-.1-.05-.097-.049-.095-.051-.093-.051-.09-.052-.087-.052-.085-.053-.083-.053-.08-.054-.077-.054v4.153zm8.74-8.179l-.257.004-.254.005-.25.008-.247.011-.244.012-.241.014-.237.016-.233.018-.231.021-.226.022-.224.023-.22.026-.216.027-.212.028-.21.031-.205.032-.202.033-.198.034-.194.036-.191.038-.187.038-.183.04-.179.041-.175.042-.172.043-.168.043-.163.045-.16.046-.155.046-.152.048-.148.048-.143.048-.139.049-.136.05-.131.05-.126.051-.123.051-.118.051-.114.052-.11.052-.106.052-.101.052-.096.052-.092.052-.088.052-.083.052-.079.052-.074.051-.07.052-.065.051-.06.05-.056.05-.051.05-.023.025-.023.024-.021.024-.02.025-.019.024-.018.024-.017.023-.015.024-.014.023-.013.023-.012.023-.01.023-.01.022-.008.022-.006.023-.006.021-.004.022-.004.021-.001.021-.001.021.001.021.001.021.004.021.004.022.006.021.006.023.008.022.01.022.01.023.012.023.013.023.014.023.015.024.017.023.018.024.019.024.02.025.021.024.023.024.023.025.051.05.056.05.06.05.065.051.07.052.074.051.079.052.083.052.088.052.092.052.096.052.101.052.106.052.11.052.114.052.118.051.123.051.126.051.131.05.136.05.139.049.143.048.148.048.152.048.155.046.16.046.163.045.168.043.172.043.175.042.179.041.183.04.187.038.191.038.194.036.198.034.202.033.205.032.21.031.212.028.216.027.22.026.224.023.226.022.231.021.233.018.237.016.241.014.244.012.247.011.25.008.254.005.257.004.26.001.26-.001.257-.004.254-.005.25-.008.247-.011.244-.012.241-.014.237-.016.233-.018.231-.021.226-.022.224-.023.22-.026.216-.027.212-.028.21-.031.205-.032.202-.033.198-.034.194-.036.191-.038.187-.038.183-.04.179-.041.175-.042.172-.043.168-.043.163-.045.16-.046.155-.046.152-.048.148-.048.143-.048.139-.049.136-.05.131-.05.126-.051.123-.051.118-.051.114-.052.11-.052.106-.052.101-.052.096-.052.092-.052.088-.052.083-.052.079-.052.074-.051.07-.052.065-.051.06-.05.056-.05.051-.05.023-.025.023-.024.021-.024.02-.025.019-.024.018-.024.017-.023.015-.024.014-.023.013-.023.012-.023.01-.023.01-.022.008-.022.006-.023.006-.021.004-.022.004-.021.001-.021.001-.021-.001-.021-.001-.021-.004-.021-.004-.022-.006-.021-.006-.023-.008-.022-.01-.022-.01-.023-.012-.023-.013-.023-.014-.023-.015-.024-.017-.023-.018-.024-.019-.024-.02-.025-.021-.024-.023-.024-.023-.025-.051-.05-.056-.05-.06-.05-.065-.051-.07-.052-.074-.051-.079-.052-.083-.052-.088-.052-.092-.052-.096-.052-.101-.052-.106-.052-.11-.052-.114-.052-.118-.051-.123-.051-.126-.051-.131-.05-.136-.05-.139-.049-.143-.048-.148-.048-.152-.048-.155-.046-.16-.046-.163-.045-.168-.043-.172-.043-.175-.042-.179-.041-.183-.04-.187-.038-.191-.038-.194-.036-.198-.034-.202-.033-.205-.032-.21-.031-.212-.028-.216-.027-.22-.026-.224-.023-.226-.022-.231-.021-.233-.018-.237-.016-.241-.014-.244-.012-.247-.011-.25-.008-.254-.005-.257-.004-.26-.001-.26.001z"/></symbol></defs><defs><symbol id="clock" width="24" height="24"><path transform="scale(.5)" d="M12 2c5.514 0 10 4.486 10 10s-4.486 10-10 10-10-4.486-10-10 4.486-10 10-10zm0-2c-6.627 0-12 5.373-12 12s5.373 12 12 12 12-5.373 12-12-5.373-12-12-12zm5.848 12.459c.202.038.202.333.001.372-1.907.361-6.045 1.111-6.547 1.111-.719 0-1.301-.582-1.301-1.301 0-.512.77-5.447 1.125-7.445.034-.192.312-.181.343.014l.985 6.238 5.394 1.011z"/></symbol></defs><defs><marker id="arrowhead" refX="7.9" refY="5" markerUnits="userSpaceOnUse" markerWidth="12" markerHeight="12" orient="auto-start-reverse"><path d="M -1 0 L 10 5 L 0 10 z"/></marker></defs><defs><marker id="crosshead" markerWidth="15" markerHeight="8" orient="auto" refX="4" refY="4.5"><path fill="none" stroke="#000000" style="stroke-dasharray: 0px, 0px;" stroke-width="1pt" d="M 1,2 L 6,7 M 6,2 L 1,7"/></marker></defs><defs><marker id="filled-head" refX="15.5" refY="7" markerWidth="20" markerHeight="28" orient="auto"><path d="M 18,7 L9,13 L14,7 L9,1 Z"/></marker></defs><defs><marker id="sequencenumber" refX="15" refY="15" markerWidth="60" markerHeight="40" orient="auto"><circle cx="15" cy="15" r="6"/></marker></defs><g><rect x="55" y="104" fill="#EDF2AE" stroke="#666" width="795.5" height="39" class="note"/><text x="453" y="109" text-anchor="middle" dominant-baseline="middle" alignment-baseline="middle" style="font-size: 16px; font-weight: 400;" class="noteText" dy="1em"><tspan x="453">PHASE 1 : EMBARQUEMENT (ONBOARDING)</tspan></text></g><g><rect x="55" y="538" fill="#EDF2AE" stroke="#666" width="795.5" height="39" class="note"/><text x="453" y="543" text-anchor="middle" dominant-baseline="middle" alignment-baseline="middle" style="font-size: 16px; font-weight: 400;" class="noteText" dy="1em"><tspan x="453">PHASE 2 : CRÉATION D'UN BON (ÉMISSION)</tspan></text></g><g><rect x="-188.5" y="665" fill="#EDF2AE" stroke="#666" width="537" height="39" class="note"/><text x="80" y="670" text-anchor="middle" dominant-baseline="middle" alignment-baseline="middle" style="font-size: 16px; font-weight: 400;" class="noteText" dy="1em"><tspan x="80">Découpage SSSS(nsec_B) ➔ P1 (Ancre), P2 (Voyageur), P3 (Témoin)</tspan></text></g><g><rect x="-85.5" y="1033" fill="#EDF2AE" stroke="#666" width="331" height="39" class="note"/><text x="80" y="1038" text-anchor="middle" dominant-baseline="middle" alignment-baseline="middle" style="font-size: 16px; font-weight: 400;" class="noteText" dy="1em"><tspan x="80">🧹 nsec_B est effacé de la RAM (zeroise)</tspan></text></g><g><rect x="800.5" y="1082" fill="#EDF2AE" stroke="#666" width="713.5" height="39" class="note"/><text x="1157" y="1087" text-anchor="middle" dominant-baseline="middle" alignment-baseline="middle" style="font-size: 16px; font-weight: 400;" class="noteText" dy="1em"><tspan x="1157">PHASE 3 : SYNCHRONISATION (BOB)</tspan></text></g><g><rect x="55" y="1353" fill="#EDF2AE" stroke="#666" width="1459" height="39" class="note"/><text x="785" y="1358" text-anchor="middle" dominant-baseline="middle" alignment-baseline="middle" style="font-size: 16px; font-weight: 400;" class="noteText" dy="1em"><tspan x="785">PHASE 4 : TRANSFERT ATOMIQUE (100% OFFLINE)</tspan></text></g><g><rect x="55" y="1402" fill="#EDF2AE" stroke="#666" width="1459" height="39" class="note"/><text x="785" y="1407" text-anchor="middle" dominant-baseline="middle" alignment-baseline="middle" style="font-size: 16px; font-weight: 400;" class="noteText" dy="1em"><tspan x="785">Étape A : L'Offre (QR 1)</tspan></text></g><g><rect x="55" y="1644" fill="#EDF2AE" stroke="#666" width="1459" height="39" class="note"/><text x="785" y="1649" text-anchor="middle" dominant-baseline="middle" alignment-baseline="middle" style="font-size: 16px; font-weight: 400;" class="noteText" dy="1em"><tspan x="785">Étape B : Réception &amp; Vérification</tspan></text></g><g><rect x="1318.5" y="1975" fill="#EDF2AE" stroke="#666" width="341" height="39" class="note"/><text x="1489" y="1980" text-anchor="middle" dominant-baseline="middle" alignment-baseline="middle" style="font-size: 16px; font-weight: 400;" class="noteText" dy="1em"><tspan x="1489">En arrière-plan (Dès que le réseau revient)</tspan></text></g><g><rect x="1323.5" y="2091" fill="#EDF2AE" stroke="#666" width="331" height="39" class="note"/><text x="1489" y="2096" text-anchor="middle" dominant-baseline="middle" alignment-baseline="middle" style="font-size: 16px; font-weight: 400;" class="noteText" dy="1em"><tspan x="1489">🧹 nsec_B est effacé de la RAM (zeroise)</tspan></text></g><g><rect x="55" y="2188" fill="#EDF2AE" stroke="#666" width="1459" height="39" class="note"/><text x="785" y="2193" text-anchor="middle" dominant-baseline="middle" alignment-baseline="middle" style="font-size: 16px; font-weight: 400;" class="noteText" dy="1em"><tspan x="785">Étape C : Accusé de Réception (QR 2)</tspan></text></g><g><rect x="55" y="2285" fill="#EDF2AE" stroke="#666" width="1459" height="39" class="note"/><text x="785" y="2290" text-anchor="middle" dominant-baseline="middle" alignment-baseline="middle" style="font-size: 16px; font-weight: 400;" class="noteText" dy="1em"><tspan x="785">Étape D : Finalisation</tspan></text></g><g><rect x="55" y="2460" fill="#EDF2AE" stroke="#666" width="1459" height="39" class="note"/><text x="785" y="2465" text-anchor="middle" dominant-baseline="middle" alignment-baseline="middle" style="font-size: 16px; font-weight: 400;" class="noteText" dy="1em"><tspan x="785">✅ TRANSFERT TERMINÉ ET SÉCURISÉ</tspan></text></g><g class="actor-man actor-top" name="Alice"><line id="actor-man-torso490" x1="80" y1="54" x2="80" y2="74"/><line id="actor-man-arms490" x1="62" y1="62" x2="98" y2="62"/><line x1="62" y1="89" x2="80" y2="74"/><line x1="80" y1="74" x2="96" y2="89"/><circle cx="80" cy="39" r="15" width="150" height="65"/><text x="80" y="96.5" style="text-anchor: middle; font-size: 16px; font-weight: 400;" dominant-baseline="central" alignment-baseline="central" class="actor actor-man"><tspan x="80" dy="0">Alice</tspan></text></g><g class="actor-man actor-top" name="Bob"><line id="actor-man-torso494" x1="1489" y1="54" x2="1489" y2="74"/><line id="actor-man-arms494" x1="1471" y1="62" x2="1507" y2="62"/><line x1="1471" y1="89" x2="1489" y2="74"/><line x1="1489" y1="74" x2="1505" y2="89"/><circle cx="1489" cy="39" r="15" width="150" height="65"/><text x="1489" y="96.5" style="text-anchor: middle; font-size: 16px; font-weight: 400;" dominant-baseline="central" alignment-baseline="central" class="actor actor-man"><tspan x="1489" dy="0">Bob</tspan></text></g><text x="329" y="158" text-anchor="middle" dominant-baseline="middle" alignment-baseline="middle" style="font-size: 16px; font-weight: 400;" class="messageText" dy="1em">Génération et stockage Clés Utilisateur (npub_A, nsec_A)</text><line x1="81" y1="191" x2="577" y2="191" class="messageLine0" stroke-width="2" stroke="none" style="fill: none;" marker-end="url(#arrowhead)"/><line x1="81" y1="191" x2="81" y2="191" stroke-width="0" marker-start="url(#sequencenumber)"/><text x="81" y="195" font-family="sans-serif" font-size="12px" text-anchor="middle" class="sequenceNumber">1</text><text x="329" y="206" text-anchor="middle" dominant-baseline="middle" alignment-baseline="middle" style="font-size: 16px; font-weight: 400;" class="messageText" dy="1em">Stockage Graine du Marché (seed_market)</text><line x1="81" y1="239" x2="577" y2="239" class="messageLine0" stroke-width="2" stroke="none" style="fill: none;" marker-end="url(#arrowhead)"/><line x1="81" y1="239" x2="81" y2="239" stroke-width="0" marker-start="url(#sequencenumber)"/><text x="81" y="243" font-family="sans-serif" font-size="12px" text-anchor="middle" class="sequenceNumber">2</text><text x="451" y="254" text-anchor="middle" dominant-baseline="middle" alignment-baseline="middle" style="font-size: 16px; font-weight: 400;" class="messageText" dy="1em">Publication Profil Utilisateur</text><text x="451" y="273" text-anchor="middle" dominant-baseline="middle" alignment-baseline="middle" style="font-size: 16px; font-weight: 400;" class="messageText" dy="1em">(Nom, avatar IPFS, tags...)</text><line x1="81" y1="306" x2="821.5" y2="306" class="messageLine0" stroke-width="2" stroke="none" style="fill: none;" marker-end="url(#arrowhead)"/><line x1="81" y1="306" x2="81" y2="306" stroke-width="0" marker-start="url(#sequencenumber)"/><text x="81" y="310" font-family="sans-serif" font-size="12px" text-anchor="middle" class="sequenceNumber">3</text><text x="451" y="321" text-anchor="middle" dominant-baseline="middle" alignment-baseline="middle" style="font-size: 16px; font-weight: 400;" class="messageText" dy="1em">REQ (Filtre: Kind 30303, Marché X)</text><line x1="81" y1="354" x2="821.5" y2="354" class="messageLine0" stroke-width="2" stroke="none" style="fill: none;" marker-end="url(#arrowhead)"/><line x1="81" y1="354" x2="81" y2="354" stroke-width="0" marker-start="url(#sequencenumber)"/><text x="81" y="358" font-family="sans-serif" font-size="12px" text-anchor="middle" class="sequenceNumber">4</text><text x="454" y="369" text-anchor="middle" dominant-baseline="middle" alignment-baseline="middle" style="font-size: 16px; font-weight: 400;" class="messageText" dy="1em">Liste des P3 chiffrés existants</text><line x1="824.5" y1="402" x2="84" y2="402" style="stroke-dasharray: 3px, 3px; fill: none;" class="messageLine1" stroke-width="2" stroke="none" marker-end="url(#arrowhead)"/><line x1="824.5" y1="402" x2="824.5" y2="402" stroke-width="0" marker-start="url(#sequencenumber)"/><text x="824.5" y="406" font-family="sans-serif" font-size="12px" text-anchor="middle" class="sequenceNumber">5</text><text x="81" y="417" text-anchor="middle" dominant-baseline="middle" alignment-baseline="middle" style="font-size: 16px; font-weight: 400;" class="messageText" dy="1em">Dérivation K_day = HMAC(seed_market, date)</text><path d="M 81,450 C 141,440 141,480 81,470" class="messageLine0" stroke-width="2" stroke="none" style="fill: none;" marker-end="url(#arrowhead)"/><line x1="81" y1="450" x2="81" y2="450" stroke-width="0" marker-start="url(#sequencenumber)"/><text x="81" y="454" font-family="sans-serif" font-size="12px" text-anchor="middle" class="sequenceNumber">6</text><text x="329" y="495" text-anchor="middle" dominant-baseline="middle" alignment-baseline="middle" style="font-size: 16px; font-weight: 400;" class="messageText" dy="1em">Déchiffre et stocke les P3 dans SQLite (Cache P3)</text><line x1="81" y1="528" x2="577" y2="528" class="messageLine0" stroke-width="2" stroke="none" style="fill: none;" marker-end="url(#arrowhead)"/><line x1="81" y1="528" x2="81" y2="528" stroke-width="0" marker-start="url(#sequencenumber)"/><text x="81" y="532" font-family="sans-serif" font-size="12px" text-anchor="middle" class="sequenceNumber">7</text><text x="81" y="592" text-anchor="middle" dominant-baseline="middle" alignment-baseline="middle" style="font-size: 16px; font-weight: 400;" class="messageText" dy="1em">Génération Clés du Bon (npub_B, nsec_B)</text><path d="M 81,625 C 141,615 141,655 81,645" class="messageLine0" stroke-width="2" stroke="none" style="fill: none;" marker-end="url(#arrowhead)"/><line x1="81" y1="625" x2="81" y2="625" stroke-width="0" marker-start="url(#sequencenumber)"/><text x="81" y="629" font-family="sans-serif" font-size="12px" text-anchor="middle" class="sequenceNumber">8</text><text x="329" y="719" text-anchor="middle" dominant-baseline="middle" alignment-baseline="middle" style="font-size: 16px; font-weight: 400;" class="messageText" dy="1em">Sauvegarde Bon (P1, P2, métadonnées) dans le Wallet</text><line x1="81" y1="752" x2="577" y2="752" class="messageLine0" stroke-width="2" stroke="none" style="fill: none;" marker-end="url(#arrowhead)"/><line x1="81" y1="752" x2="81" y2="752" stroke-width="0" marker-start="url(#sequencenumber)"/><text x="81" y="756" font-family="sans-serif" font-size="12px" text-anchor="middle" class="sequenceNumber">9</text><text x="329" y="767" text-anchor="middle" dominant-baseline="middle" alignment-baseline="middle" style="font-size: 16px; font-weight: 400;" class="messageText" dy="1em">Sauvegarde P3 dans le Cache P3 local</text><line x1="81" y1="800" x2="577" y2="800" class="messageLine0" stroke-width="2" stroke="none" style="fill: none;" marker-end="url(#arrowhead)"/><line x1="81" y1="800" x2="81" y2="800" stroke-width="0" marker-start="url(#sequencenumber)"/><text x="81" y="804" font-family="sans-serif" font-size="12px" text-anchor="middle" class="sequenceNumber">10</text><text x="81" y="815" text-anchor="middle" dominant-baseline="middle" alignment-baseline="middle" style="font-size: 16px; font-weight: 400;" class="messageText" dy="1em">Chiffre P3 avec K_day</text><path d="M 81,848 C 141,838 141,878 81,868" class="messageLine0" stroke-width="2" stroke="none" style="fill: none;" marker-end="url(#arrowhead)"/><line x1="81" y1="848" x2="81" y2="848" stroke-width="0" marker-start="url(#sequencenumber)"/><text x="81" y="852" font-family="sans-serif" font-size="12px" text-anchor="middle" class="sequenceNumber">11</text><text x="81" y="893" text-anchor="middle" dominant-baseline="middle" alignment-baseline="middle" style="font-size: 16px; font-weight: 400;" class="messageText" dy="1em">Reconstruit nsec_B en RAM (P2 + P3)</text><path d="M 81,926 C 141,916 141,956 81,946" class="messageLine0" stroke-width="2" stroke="none" style="fill: none;" marker-end="url(#arrowhead)"/><line x1="81" y1="926" x2="81" y2="926" stroke-width="0" marker-start="url(#sequencenumber)"/><text x="81" y="930" font-family="sans-serif" font-size="12px" text-anchor="middle" class="sequenceNumber">12</text><text x="451" y="971" text-anchor="middle" dominant-baseline="middle" alignment-baseline="middle" style="font-size: 16px; font-weight: 400;" class="messageText" dy="1em">Publie Création Bon</text><text x="451" y="990" text-anchor="middle" dominant-baseline="middle" alignment-baseline="middle" style="font-size: 16px; font-weight: 400;" class="messageText" dy="1em">(Tags: P3_chiffré, Valeur, Rareté) - Signé par nsec_B</text><line x1="81" y1="1023" x2="821.5" y2="1023" class="messageLine0" stroke-width="2" stroke="none" style="fill: none;" marker-end="url(#arrowhead)"/><line x1="81" y1="1023" x2="81" y2="1023" stroke-width="0" marker-start="url(#sequencenumber)"/><text x="81" y="1027" font-family="sans-serif" font-size="12px" text-anchor="middle" class="sequenceNumber">13</text><text x="1159" y="1136" text-anchor="middle" dominant-baseline="middle" alignment-baseline="middle" style="font-size: 16px; font-weight: 400;" class="messageText" dy="1em">REQ Sync du matin (Kind 30303)</text><line x1="1488" y1="1169" x2="829.5" y2="1169" class="messageLine0" stroke-width="2" stroke="none" style="fill: none;" marker-end="url(#arrowhead)"/><line x1="1488" y1="1169" x2="1488" y2="1169" stroke-width="0" marker-start="url(#sequencenumber)"/><text x="1488" y="1173" font-family="sans-serif" font-size="12px" text-anchor="middle" class="sequenceNumber">14</text><text x="1156" y="1184" text-anchor="middle" dominant-baseline="middle" alignment-baseline="middle" style="font-size: 16px; font-weight: 400;" class="messageText" dy="1em">Reçoit le Bon d'Alice</text><line x1="826.5" y1="1217" x2="1485" y2="1217" style="stroke-dasharray: 3px, 3px; fill: none;" class="messageLine1" stroke-width="2" stroke="none" marker-end="url(#arrowhead)"/><line x1="826.5" y1="1217" x2="826.5" y2="1217" stroke-width="0" marker-start="url(#sequencenumber)"/><text x="826.5" y="1221" font-family="sans-serif" font-size="12px" text-anchor="middle" class="sequenceNumber">15</text><text x="1490" y="1232" text-anchor="middle" dominant-baseline="middle" alignment-baseline="middle" style="font-size: 16px; font-weight: 400;" class="messageText" dy="1em">Dérive K_day et déchiffre P3</text><path d="M 1490,1265 C 1550,1255 1550,1295 1490,1285" class="messageLine0" stroke-width="2" stroke="none" style="fill: none;" marker-end="url(#arrowhead)"/><line x1="1490" y1="1265" x2="1490" y2="1265" stroke-width="0" marker-start="url(#sequencenumber)"/><text x="1490" y="1269" font-family="sans-serif" font-size="12px" text-anchor="middle" class="sequenceNumber">16</text><text x="1274" y="1310" text-anchor="middle" dominant-baseline="middle" alignment-baseline="middle" style="font-size: 16px; font-weight: 400;" class="messageText" dy="1em">Stocke P3 du Bon (Essentiel pour valider offline)</text><line x1="1488" y1="1343" x2="1059" y2="1343" class="messageLine0" stroke-width="2" stroke="none" style="fill: none;" marker-end="url(#arrowhead)"/><line x1="1488" y1="1343" x2="1488" y2="1343" stroke-width="0" marker-start="url(#sequencenumber)"/><text x="1488" y="1347" font-family="sans-serif" font-size="12px" text-anchor="middle" class="sequenceNumber">17</text><text x="329" y="1456" text-anchor="middle" dominant-baseline="middle" alignment-baseline="middle" style="font-size: 16px; font-weight: 400;" class="messageText" dy="1em">Récupère P3 du Bon</text><line x1="81" y1="1489" x2="577" y2="1489" class="messageLine0" stroke-width="2" stroke="none" style="fill: none;" marker-end="url(#arrowhead)"/><line x1="81" y1="1489" x2="81" y2="1489" stroke-width="0" marker-start="url(#sequencenumber)"/><text x="81" y="1493" font-family="sans-serif" font-size="12px" text-anchor="middle" class="sequenceNumber">18</text><text x="81" y="1504" text-anchor="middle" dominant-baseline="middle" alignment-baseline="middle" style="font-size: 16px; font-weight: 400;" class="messageText" dy="1em">Chiffre P2 (Clé AES = SHA256(P3))</text><text x="81" y="1523" text-anchor="middle" dominant-baseline="middle" alignment-baseline="middle" style="font-size: 16px; font-weight: 400;" class="messageText" dy="1em">Génère Challenge aléatoire</text><path d="M 81,1556 C 141,1546 141,1586 81,1576" class="messageLine0" stroke-width="2" stroke="none" style="fill: none;" marker-end="url(#arrowhead)"/><line x1="81" y1="1556" x2="81" y2="1556" stroke-width="0" marker-start="url(#sequencenumber)"/><text x="81" y="1560" font-family="sans-serif" font-size="12px" text-anchor="middle" class="sequenceNumber">19</text><text x="783" y="1601" text-anchor="middle" dominant-baseline="middle" alignment-baseline="middle" style="font-size: 16px; font-weight: 400;" class="messageText" dy="1em">📱 Affiche QR1</text><line x1="81" y1="1634" x2="1485" y2="1634" class="messageLine0" stroke-width="2" stroke="none" style="fill: none;" marker-end="url(#arrowhead)"/><line x1="81" y1="1634" x2="81" y2="1634" stroke-width="0" marker-start="url(#sequencenumber)"/><text x="81" y="1638" font-family="sans-serif" font-size="12px" text-anchor="middle" class="sequenceNumber">20</text><text x="1274" y="1698" text-anchor="middle" dominant-baseline="middle" alignment-baseline="middle" style="font-size: 16px; font-weight: 400;" class="messageText" dy="1em">Récupère P3 local via npub_B</text><line x1="1488" y1="1731" x2="1059" y2="1731" class="messageLine0" stroke-width="2" stroke="none" style="fill: none;" marker-end="url(#arrowhead)"/><line x1="1488" y1="1731" x2="1488" y2="1731" stroke-width="0" marker-start="url(#sequencenumber)"/><text x="1488" y="1735" font-family="sans-serif" font-size="12px" text-anchor="middle" class="sequenceNumber">21</text><text x="1490" y="1746" text-anchor="middle" dominant-baseline="middle" alignment-baseline="middle" style="font-size: 16px; font-weight: 400;" class="messageText" dy="1em">Déchiffre P2_chiffré grâce à P3</text><path d="M 1490,1779 C 1550,1769 1550,1809 1490,1799" class="messageLine0" stroke-width="2" stroke="none" style="fill: none;" marker-end="url(#arrowhead)"/><line x1="1490" y1="1779" x2="1490" y2="1779" stroke-width="0" marker-start="url(#sequencenumber)"/><text x="1490" y="1783" font-family="sans-serif" font-size="12px" text-anchor="middle" class="sequenceNumber">22</text><text x="1490" y="1824" text-anchor="middle" dominant-baseline="middle" alignment-baseline="middle" style="font-size: 16px; font-weight: 400;" class="messageText" dy="1em">Reconstruit nsec_B = P2 + P3 (en RAM)</text><path d="M 1490,1857 C 1550,1847 1550,1887 1490,1877" class="messageLine0" stroke-width="2" stroke="none" style="fill: none;" marker-end="url(#arrowhead)"/><line x1="1490" y1="1857" x2="1490" y2="1857" stroke-width="0" marker-start="url(#sequencenumber)"/><text x="1490" y="1861" font-family="sans-serif" font-size="12px" text-anchor="middle" class="sequenceNumber">23</text><text x="1490" y="1902" text-anchor="middle" dominant-baseline="middle" alignment-baseline="middle" style="font-size: 16px; font-weight: 400;" class="messageText" dy="1em">Signe le Challenge d'Alice avec nsec_B</text><path d="M 1490,1935 C 1550,1925 1550,1965 1490,1955" class="messageLine0" stroke-width="2" stroke="none" style="fill: none;" marker-end="url(#arrowhead)"/><line x1="1490" y1="1935" x2="1490" y2="1935" stroke-width="0" marker-start="url(#sequencenumber)"/><text x="1490" y="1939" font-family="sans-serif" font-size="12px" text-anchor="middle" class="sequenceNumber">24</text><text x="1159" y="2029" text-anchor="middle" dominant-baseline="middle" alignment-baseline="middle" style="font-size: 16px; font-weight: 400;" class="messageText" dy="1em">Publie Transfert</text><text x="1159" y="2048" text-anchor="middle" dominant-baseline="middle" alignment-baseline="middle" style="font-size: 16px; font-weight: 400;" class="messageText" dy="1em">(Signé par le Bon) pour le Dashboard Marchand</text><line x1="1488" y1="2081" x2="829.5" y2="2081" class="messageLine0" stroke-width="2" stroke="none" style="fill: none;" marker-end="url(#arrowhead)"/><line x1="1488" y1="2081" x2="1488" y2="2081" stroke-width="0" marker-start="url(#sequencenumber)"/><text x="1488" y="2085" font-family="sans-serif" font-size="12px" text-anchor="middle" class="sequenceNumber">25</text><text x="1274" y="2145" text-anchor="middle" dominant-baseline="middle" alignment-baseline="middle" style="font-size: 16px; font-weight: 400;" class="messageText" dy="1em">Sauvegarde le Bon (avec P2) dans son Wallet</text><line x1="1488" y1="2178" x2="1059" y2="2178" class="messageLine0" stroke-width="2" stroke="none" style="fill: none;" marker-end="url(#arrowhead)"/><line x1="1488" y1="2178" x2="1488" y2="2178" stroke-width="0" marker-start="url(#sequencenumber)"/><text x="1488" y="2182" font-family="sans-serif" font-size="12px" text-anchor="middle" class="sequenceNumber">26</text><text x="786" y="2242" text-anchor="middle" dominant-baseline="middle" alignment-baseline="middle" style="font-size: 16px; font-weight: 400;" class="messageText" dy="1em">📱 Affiche QR2 (ACK)</text><line x1="1488" y1="2275" x2="84" y2="2275" class="messageLine0" stroke-width="2" stroke="none" style="fill: none;" marker-end="url(#arrowhead)"/><line x1="1488" y1="2275" x2="1488" y2="2275" stroke-width="0" marker-start="url(#sequencenumber)"/><text x="1488" y="2279" font-family="sans-serif" font-size="12px" text-anchor="middle" class="sequenceNumber">27</text><text x="81" y="2339" text-anchor="middle" dominant-baseline="middle" alignment-baseline="middle" style="font-size: 16px; font-weight: 400;" class="messageText" dy="1em">Vérifie la Signature(Challenge) avec npub_B (Clé publique du bon)</text><path d="M 81,2372 C 141,2362 141,2402 81,2392" class="messageLine0" stroke-width="2" stroke="none" style="fill: none;" marker-end="url(#arrowhead)"/><line x1="81" y1="2372" x2="81" y2="2372" stroke-width="0" marker-start="url(#sequencenumber)"/><text x="81" y="2376" font-family="sans-serif" font-size="12px" text-anchor="middle" class="sequenceNumber">28</text><text x="329" y="2417" text-anchor="middle" dominant-baseline="middle" alignment-baseline="middle" style="font-size: 16px; font-weight: 400;" class="messageText" dy="1em">🗑️ Supprime/Invalide P2 du Wallet (Bon = dépensé)</text><line x1="81" y1="2450" x2="577" y2="2450" class="messageLine0" stroke-width="2" stroke="none" style="fill: none;" marker-end="url(#arrowhead)"/><line x1="81" y1="2450" x2="81" y2="2450" stroke-width="0" marker-start="url(#sequencenumber)"/><text x="81" y="2454" font-family="sans-serif" font-size="12px" text-anchor="middle" class="sequenceNumber">29</text><g class="actor-man actor-bottom" name="Alice"><line id="actor-man-torso494" x1="80" y1="2544" x2="80" y2="2564"/><line id="actor-man-arms494" x1="62" y1="2552" x2="98" y2="2552"/><line x1="62" y1="2579" x2="80" y2="2564"/><line x1="80" y1="2564" x2="96" y2="2579"/><circle cx="80" cy="2529" r="15" width="150" height="65"/><text x="80" y="2586.5" style="text-anchor: middle; font-size: 16px; font-weight: 400;" dominant-baseline="central" alignment-baseline="central" class="actor actor-man"><tspan x="80" dy="0">Alice</tspan></text></g><g class="actor-man actor-bottom" name="Bob"><line id="actor-man-torso494" x1="1489" y1="2544" x2="1489" y2="2564"/><line id="actor-man-arms494" x1="1471" y1="2552" x2="1507" y2="2552"/><line x1="1471" y1="2579" x2="1489" y2="2564"/><line x1="1489" y1="2564" x2="1505" y2="2579"/><circle cx="1489" cy="2529" r="15" width="150" height="65"/><text x="1489" y="2586.5" style="text-anchor: middle; font-size: 16px; font-weight: 400;" dominant-baseline="central" alignment-baseline="central" class="actor actor-man"><tspan x="1489" dy="0">Bob</tspan></text></g></svg>